<svg xmlns="http://www.w3.org/2000/svg" version="1.1" xmlns:xlink="http://www.w3.org/1999/xlink" xmlns:svgjs="http://svgjs.com/svgjs" width="1440" height="560" preserveAspectRatio="none" viewBox="0 0 1440 560"><g mask="url(&quot;#SvgjsMask7129&quot;)" fill="none"><rect width="1440" height="560" x="0" y="0" fill="url(#SvgjsLinearGradient7130)"></rect><use xlink:href="#SvgjsSymbol7137" x="0" y="0"></use><use xlink:href="#SvgjsSymbol7137" x="720" y="0"></use></g><defs><mask id="SvgjsMask7129"><rect width="1440" height="560" fill="#ffffff"></rect></mask><linearGradient x1="50%" y1="100%" x2="50%" y2="0%" gradientUnits="userSpaceOnUse" id="SvgjsLinearGradient7130"><stop stop-color="rgba(4, 3, 27, 1)" offset="0.15"></stop><stop stop-color="rgba(1, 0, 0, 1)" offset="0.74"></stop></linearGradient><path d="M-1 0 a1 1 0 1 0 2 0 a1 1 0 1 0 -2 0z" id="SvgjsPath7136"></path><path d="M-3 0 a3 3 0 1 0 6 0 a3 3 0 1 0 -6 0z" id="SvgjsPath7131"></path><path d="M-5 0 a5 5 0 1 0 10 0 a5 5 0 1 0 -10 0z" id="SvgjsPath7132"></path><path d="M2 -2 L-2 2z" id="SvgjsPath7134"></path><path d="M6 -6 L-6 6z" id="SvgjsPath7133"></path><path d="M30 -30 L-30 30z" id="SvgjsPath7135"></path></defs><symbol id="SvgjsSymbol7137"><use xlink:href="#SvgjsPath7131" x="30" y="30" stroke="rgba(100, 25, 65, 1)"></use><use xlink:href="#SvgjsPath7131" x="30" y="90" stroke="rgba(100, 25, 65, 1)"></use><use xlink:href="#SvgjsPath7132" x="30" y="150" stroke="rgba(100, 25, 65, 1)"></use><use xlink:href="#SvgjsPath7133" x="30" y="210" stroke="rgba(100, 25, 65, 1)"></use><use xlink:href="#SvgjsPath7133" x="30" y="270" stroke="rgba(100, 25, 65, 1)"></use><use xlink:href="#SvgjsPath7133" x="30" y="330" stroke="rgba(100, 25, 65, 1)"></use><use xlink:href="#SvgjsPath7132" x="30" y="390" stroke="rgba(100, 25, 65, 1)"></use><use xlink:href="#SvgjsPath7132" x="30" y="450" stroke="rgba(100, 25, 65, 1)"></use><use xlink:href="#SvgjsPath7133" x="30" y="510" stroke="rgba(100, 25, 65, 1)"></use><use xlink:href="#SvgjsPath7131" x="30" y="570" stroke="rgba(100, 25, 65, 1)"></use><use xlink:href="#SvgjsPath7131" x="90" y="30" stroke="rgba(100, 25, 65, 1)"></use><use xlink:href="#SvgjsPath7133" x="90" y="90" stroke="rgba(100, 25, 65, 1)"></use><use xlink:href="#SvgjsPath7133" x="90" y="150" stroke="rgba(100, 25, 65, 1)"></use><use xlink:href="#SvgjsPath7133" x="90" y="210" stroke="rgba(100, 25, 65, 1)"></use><use xlink:href="#SvgjsPath7131" x="90" y="270" stroke="rgba(100, 25, 65, 1)"></use><use xlink:href="#SvgjsPath7132" x="90" y="330" stroke="rgba(100, 25, 65, 1)"></use><use xlink:href="#SvgjsPath7134" x="90" y="390" stroke="rgba(100, 25, 65, 1)"></use><use xlink:href="#SvgjsPath7132" x="90" y="450" stroke="rgba(100, 25, 65, 1)"></use><use xlink:href="#SvgjsPath7132" x="90" y="510" stroke="rgba(100, 25, 65, 1)"></use><use xlink:href="#SvgjsPath7133" x="90" y="570" stroke="rgba(100, 25, 65, 1)"></use><use xlink:href="#SvgjsPath7132" x="150" y="30" stroke="rgba(100, 25, 65, 1)"></use><use xlink:href="#SvgjsPath7133" x="150" y="90" stroke="rgba(100, 25, 65, 1)"></use><use xlink:href="#SvgjsPath7131" x="150" y="150" stroke="rgba(100, 25, 65, 1)"></use><use xlink:href="#SvgjsPath7133" x="150" y="210" stroke="rgba(100, 25, 65, 1)"></use><use xlink:href="#SvgjsPath7132" x="150" y="270" stroke="rgba(100, 25, 65, 1)"></use><use xlink:href="#SvgjsPath7135" x="150" y="330" stroke="rgba(100, 25, 65, 1)" stroke-width="3"></use><use xlink:href="#SvgjsPath7136" x="150" y="390" stroke="rgba(100, 25, 65, 1)"></use><use xlink:href="#SvgjsPath7131" x="150" y="450" stroke="rgba(100, 25, 65, 1)"></use><use xlink:href="#SvgjsPath7134" x="150" y="510" stroke="rgba(100, 25, 65, 1)"></use><use xlink:href="#SvgjsPath7135" x="150" y="570" stroke="rgba(100, 25, 65, 1)" stroke-width="3"></use><use xlink:href="#SvgjsPath7135" x="210" y="30" stroke="rgba(100, 25, 65, 1)" stroke-width="3"></use><use xlink:href="#SvgjsPath7136" x="210" y="90" stroke="rgba(100, 25, 65, 1)"></use><use xlink:href="#SvgjsPath7133" x="210" y="150" stroke="rgba(100, 25, 65, 1)"></use><use xlink:href="#SvgjsPath7133" x="210" y="210" stroke="rgba(100, 25, 65, 1)"></use><use xlink:href="#SvgjsPath7132" x="210" y="270" stroke="rgba(100, 25, 65, 1)"></use><use xlink:href="#SvgjsPath7132" x="210" y="330" stroke="rgba(100, 25, 65, 1)"></use><use xlink:href="#SvgjsPath7133" x="210" y="390" stroke="rgba(100, 25, 65, 1)"></use><use xlink:href="#SvgjsPath7132" x="210" y="450" stroke="rgba(100, 25, 65, 1)"></use><use xlink:href="#SvgjsPath7136" x="210" y="510" stroke="rgba(100, 25, 65, 1)"></use><use xlink:href="#SvgjsPath7132" x="210" y="570" stroke="rgba(100, 25, 65, 1)"></use><use xlink:href="#SvgjsPath7136" x="270" y="30" stroke="rgba(100, 25, 65, 1)"></use><use xlink:href="#SvgjsPath7134" x="270" y="90" stroke="rgba(100, 25, 65, 1)"></use><use xlink:href="#SvgjsPath7133" x="270" y="150" stroke="rgba(100, 25, 65, 1)"></use><use xlink:href="#SvgjsPath7134" x="270" y="210" stroke="rgba(100, 25, 65, 1)"></use><use xlink:href="#SvgjsPath7136" x="270" y="270" stroke="rgba(100, 25, 65, 1)"></use><use xlink:href="#SvgjsPath7133" x="270" y="330" stroke="rgba(100, 25, 65, 1)"></use><use xlink:href="#SvgjsPath7132" x="270" y="390" stroke="rgba(100, 25, 65, 1)"></use><use xlink:href="#SvgjsPath7133" x="270" y="450" stroke="rgba(100, 25, 65, 1)"></use><use xlink:href="#SvgjsPath7133" x="270" y="510" stroke="rgba(100, 25, 65, 1)"></use><use xlink:href="#SvgjsPath7132" x="270" y="570" stroke="rgba(100, 25, 65, 1)"></use><use xlink:href="#SvgjsPath7134" x="330" y="30" stroke="rgba(100, 25, 65, 1)"></use><use xlink:href="#SvgjsPath7132" x="330" y="90" stroke="rgba(100, 25, 65, 1)"></use><use xlink:href="#SvgjsPath7131" x="330" y="150" stroke="rgba(100, 25, 65, 1)"></use><use xlink:href="#SvgjsPath7133" x="330" y="210" stroke="rgba(100, 25, 65, 1)"></use><use xlink:href="#SvgjsPath7133" x="330" y="270" stroke="rgba(100, 25, 65, 1)"></use><use xlink:href="#SvgjsPath7132" x="330" y="330" stroke="rgba(100, 25, 65, 1)"></use><use xlink:href="#SvgjsPath7133" x="330" y="390" stroke="rgba(100, 25, 65, 1)"></use><use xlink:href="#SvgjsPath7131" x="330" y="450" stroke="rgba(100, 25, 65, 1)"></use><use xlink:href="#SvgjsPath7136" x="330" y="510" stroke="rgba(100, 25, 65, 1)"></use><use xlink:href="#SvgjsPath7132" x="330" y="570" stroke="rgba(100, 25, 65, 1)"></use><use xlink:href="#SvgjsPath7133" x="390" y="30" stroke="rgba(100, 25, 65, 1)"></use><use xlink:href="#SvgjsPath7131" x="390" y="90" stroke="rgba(100, 25, 65, 1)"></use><use xlink:href="#SvgjsPath7133" x="390" y="150" stroke="rgba(100, 25, 65, 1)"></use><use xlink:href="#SvgjsPath7136" x="390" y="210" stroke="rgba(100, 25, 65, 1)"></use><use xlink:href="#SvgjsPath7133" x="390" y="270" stroke="rgba(100, 25, 65, 1)"></use><use xlink:href="#SvgjsPath7132" x="390" y="330" stroke="rgba(100, 25, 65, 1)"></use><use xlink:href="#SvgjsPath7133" x="390" y="390" stroke="rgba(100, 25, 65, 1)"></use><use xlink:href="#SvgjsPath7136" x="390" y="450" stroke="rgba(100, 25, 65, 1)"></use><use xlink:href="#SvgjsPath7133" x="390" y="510" stroke="rgba(100, 25, 65, 1)"></use><use xlink:href="#SvgjsPath7132" x="390" y="570" stroke="rgba(100, 25, 65, 1)"></use><use xlink:href="#SvgjsPath7132" x="450" y="30" stroke="rgba(100, 25, 65, 1)"></use><use xlink:href="#SvgjsPath7132" x="450" y="90" stroke="rgba(100, 25, 65, 1)"></use><use xlink:href="#SvgjsPath7132" x="450" y="150" stroke="rgba(100, 25, 65, 1)"></use><use xlink:href="#SvgjsPath7135" x="450" y="210" stroke="rgba(100, 25, 65, 1)" stroke-width="3"></use><use xlink:href="#SvgjsPath7133" x="450" y="270" stroke="rgba(100, 25, 65, 1)"></use><use xlink:href="#SvgjsPath7133" x="450" y="330" stroke="rgba(100, 25, 65, 1)"></use><use xlink:href="#SvgjsPath7132" x="450" y="390" stroke="rgba(100, 25, 65, 1)"></use><use xlink:href="#SvgjsPath7132" x="450" y="450" stroke="rgba(100, 25, 65, 1)"></use><use xlink:href="#SvgjsPath7134" x="450" y="510" stroke="rgba(100, 25, 65, 1)"></use><use xlink:href="#SvgjsPath7132" x="450" y="570" stroke="rgba(100, 25, 65, 1)"></use><use xlink:href="#SvgjsPath7132" x="510" y="30" stroke="rgba(100, 25, 65, 1)"></use><use xlink:href="#SvgjsPath7133" x="510" y="90" stroke="rgba(100, 25, 65, 1)"></use><use xlink:href="#SvgjsPath7133" x="510" y="150" stroke="rgba(100, 25, 65, 1)"></use><use xlink:href="#SvgjsPath7133" x="510" y="210" stroke="rgba(100, 25, 65, 1)"></use><use xlink:href="#SvgjsPath7134" x="510" y="270" stroke="rgba(100, 25, 65, 1)"></use><use xlink:href="#SvgjsPath7136" x="510" y="330" stroke="rgba(100, 25, 65, 1)"></use><use xlink:href="#SvgjsPath7132" x="510" y="390" stroke="rgba(100, 25, 65, 1)"></use><use xlink:href="#SvgjsPath7132" x="510" y="450" stroke="rgba(100, 25, 65, 1)"></use><use xlink:href="#SvgjsPath7134" x="510" y="510" stroke="rgba(100, 25, 65, 1)"></use><use xlink:href="#SvgjsPath7131" x="510" y="570" stroke="rgba(100, 25, 65, 1)"></use><use xlink:href="#SvgjsPath7132" x="570" y="30" stroke="rgba(100, 25, 65, 1)"></use><use xlink:href="#SvgjsPath7131" x="570" y="90" stroke="rgba(100, 25, 65, 1)"></use><use xlink:href="#SvgjsPath7136" x="570" y="150" stroke="rgba(100, 25, 65, 1)"></use><use xlink:href="#SvgjsPath7131" x="570" y="210" stroke="rgba(100, 25, 65, 1)"></use><use xlink:href="#SvgjsPath7133" x="570" y="270" stroke="rgba(100, 25, 65, 1)"></use><use xlink:href="#SvgjsPath7132" x="570" y="330" stroke="rgba(100, 25, 65, 1)"></use><use xlink:href="#SvgjsPath7132" x="570" y="390" stroke="rgba(100, 25, 65, 1)"></use><use xlink:href="#SvgjsPath7132" x="570" y="450" stroke="rgba(100, 25, 65, 1)"></use><use xlink:href="#SvgjsPath7136" x="570" y="510" stroke="rgba(100, 25, 65, 1)"></use><use xlink:href="#SvgjsPath7131" x="570" y="570" stroke="rgba(100, 25, 65, 1)"></use><use xlink:href="#SvgjsPath7134" x="630" y="30" stroke="rgba(100, 25, 65, 1)"></use><use xlink:href="#SvgjsPath7132" x="630" y="90" stroke="rgba(100, 25, 65, 1)"></use><use xlink:href="#SvgjsPath7132" x="630" y="150" stroke="rgba(100, 25, 65, 1)"></use><use xlink:href="#SvgjsPath7134" x="630" y="210" stroke="rgba(100, 25, 65, 1)"></use><use xlink:href="#SvgjsPath7136" x="630" y="270" stroke="rgba(100, 25, 65, 1)"></use><use xlink:href="#SvgjsPath7133" x="630" y="330" stroke="rgba(100, 25, 65, 1)"></use><use xlink:href="#SvgjsPath7133" x="630" y="390" stroke="rgba(100, 25, 65, 1)"></use><use xlink:href="#SvgjsPath7135" x="630" y="450" stroke="rgba(100, 25, 65, 1)" stroke-width="3"></use><use xlink:href="#SvgjsPath7132" x="630" y="510" stroke="rgba(100, 25, 65, 1)"></use><use xlink:href="#SvgjsPath7132" x="630" y="570" stroke="rgba(100, 25, 65, 1)"></use><use xlink:href="#SvgjsPath7132" x="690" y="30" stroke="rgba(100, 25, 65, 1)"></use><use xlink:href="#SvgjsPath7133" x="690" y="90" stroke="rgba(100, 25, 65, 1)"></use><use xlink:href="#SvgjsPath7133" x="690" y="150" stroke="rgba(100, 25, 65, 1)"></use><use xlink:href="#SvgjsPath7133" x="690" y="210" stroke="rgba(100, 25, 65, 1)"></use><use xlink:href="#SvgjsPath7132" x="690" y="270" stroke="rgba(100, 25, 65, 1)"></use><use xlink:href="#SvgjsPath7135" x="690" y="330" stroke="rgba(100, 25, 65, 1)" stroke-width="3"></use><use xlink:href="#SvgjsPath7132" x="690" y="390" stroke="rgba(100, 25, 65, 1)"></use><use xlink:href="#SvgjsPath7134" x="690" y="450" stroke="rgba(100, 25, 65, 1)"></use><use xlink:href="#SvgjsPath7132" x="690" y="510" stroke="rgba(100, 25, 65, 1)"></use><use xlink:href="#SvgjsPath7132" x="690" y="570" stroke="rgba(100, 25, 65, 1)"></use></symbol></svg>